<?xml version="1.0" encoding="utf-8"?>
<!-- Generator: Adobe Illustrator 16.0.0, SVG Export Plug-In . SVG Version: 6.00 Build 0)  -->
<!DOCTYPE svg PUBLIC "-//W3C//DTD SVG 1.1//EN" "http://www.w3.org/Graphics/SVG/1.1/DTD/svg11.dtd">
<svg version="1.1" xmlns="http://www.w3.org/2000/svg" xmlns:xlink="http://www.w3.org/1999/xlink" x="0px" y="0px" width="600px"
	 height="400px" viewBox="0 0 600 400" enable-background="new 0 0 600 400" xml:space="preserve">
<g id="Layer_1">
</g>
<g id="Layer_2">
	<g>
		<path d="M110.41,144.008c0,0,0.257-17.455,13.455-22.683c13.2-5.227,18.332-0.353,23.255,5.208s17.755,23.98,25.111,25.52
			c4.377-6.208,9.691-30.329,10.416-37.923c0.724-7.596-3.225-11.891-6.127-6.445s11.468,16.749,27.149,6.266
			c5.101-3.706,6.194-5.314,6.194-5.314l-0.152,3.703c0,0-8.78,10.561-22.771,9.986c-13.989-0.576-18.794-10.306-17.161-14.927
			c1.566-4.431,4.499-7.233,10.464-6.989c5.967,0.247,9.73,9.882,6.989,31.409c-2.742,21.527-4.803,42.052-17.522,45.649
			c-7.689,0.376-10.906-5.189-18.712-15.815c-7.808-10.625-11.968-19.6-17.129-24.375c-5.161-4.776-18.722-6.958-21.593,6.448
			C110.775,148.457,110.41,144.008,110.41,144.008z"/>
		<path stroke="#C1272D" stroke-miterlimit="10" d="M110.566,160.428"/>
		<path d="M232.188,92.036c-19.561,0.354-33.14,19.04-34.218,40.223c-1.079,21.183,17.045,41.507,40.896,32.803
			c23.854-8.704,27.095-42.37,22.45-54.721c-4.645-12.35-10.639-16.924-15.548-12.799c-4.911,4.126-8.271,20.681,11.54,20.054
			c11.965-0.331,20.688-11.926,20.688-11.926s-0.539-1.877-2.888,0.087c-2.35,1.964-19.017,11.377-25.578,5.543
			c-6.562-5.835,0.814-14.806,4.651-7.847c3.836,6.959,0.359,36.287-17.246,40.92c-17.604,4.634-34.029-11.911-8.979-44.68
			C231.658,94.899,235.328,91.979,232.188,92.036z"/>
		<path d="M255.12,225.164c-19.528,1.158-32.328,20.386-32.535,41.595c-0.206,21.21,18.738,40.772,42.212,31.094
			c23.475-9.678,25.329-43.449,20.182-55.598c-5.148-12.148-11.325-16.473-16.062-12.148c-4.736,4.324-7.413,21.003,12.355,19.562
			c11.94-0.823,20.18-12.767,20.18-12.767s-0.617-1.853-2.884,0.206c-2.265,2.059-18.532,12.149-25.328,6.589
			c-6.795-5.56,0.207-14.826,4.325-8.031c4.118,6.796,1.852,36.241-15.548,41.595c-17.399,5.354-34.491-10.502-10.811-44.272
			C254.708,228.046,258.255,224.978,255.12,225.164z"/>
		<path d="M323.279,118.292c1.132-10.193,4.529-26.563,7.208-25.74c8.137,2.501,14.825,7.619,11.324,26.77
			c-3.5,19.151-9.918,50.589-22.033,65.334c-11.121,13.535-43.243,35.156-65.275,16.003c-23.845-20.73,21.209-33.977,56.01-32.329
			c34.8,1.647,65.324,15.446,80.722,26.357c6.586,4.735,1.5,5.364-5.56,2.059c-25.949-12.149-61.425-20.227-107.283-16.473
			c-45.305,3.708-16.623,38.605,17.297,14.414C314.369,181.339,322.146,128.496,323.279,118.292z"/>
		<path d="M329.869,102.024c0,0-11.12-12.562-24.505-12.355c-13.385,0.206-21.827,8.031-28.211,21.828
			c-6.383,13.796-12.813,36.913-1.441,47.36c11.372,10.448,35.417,4.12,48.186-17.09l1.029-6.589c0,0-23.679,25.739-33.357,13.178
			c-9.68-12.561,8.648-44.067,15.443-47.566c6.795-3.501,13.32-4.041,22.033,3.088"/>
		<path d="M375.067,98.112c-25.658,8.309-36.91,42.934-18.378,58.584c18.532,15.649,36.629,13.229,63.397,1.082l7.193-10.477
			c0,0-25.336,17.104-44.072,12.162c-18.738-4.941-11.945-27.586-8.445-33.763c3.5-6.178,18.831-22.374,21.946-12.147
			c4.015,13.18-14.12,30.687-29.12,31.098v4.118c0,0,20.367,0.001,32.311-9.677s13.172-23.063,4.109-32.33
			C394.948,97.494,385.878,94.611,375.067,98.112z"/>
		<path d="M447.188,103.381c0,0-23.933,29.71-32.461,43.638c-8.526,13.929-10.526,24.211,1.757,28.994
			c12.28,4.781,19.885-0.897,20.763-1.495c0.876-0.598-0.732-2.242-2.633-1.644c-1.901,0.598-9.796,2.54-10.528-3.14
			c-0.731-5.679,5.118-15.243,12.283-24.658c7.164-9.415,20.98-29.214,22.734-31.306c1.755-2.092,5.054-8.04-6.65-13.379
			C450.112,100.094,449.025,101.086,447.188,103.381z"/>
		<path d="M409.11,202.742c0,0-0.461,39.767,1.538,56.628c1.998,16.862,7.01,26.466,20.218,22.189
			c13.207-4.277,15.788-13.883,16.123-14.945c0.335-1.062-2.054-1.321-3.231,0.419c-1.178,1.739-6.419,8.529-10.698,4.439
			c-4.278-4.09-5.657-15.664-5.856-27.989c-0.2-12.323-1.709-47.968-1.618-50.814c0.09-2.847-1.556-4.893-14.076,4.183
			C409.39,198.159,409.138,199.677,409.11,202.742z"/>
		<path d="M311.644,279.114c9.73-31.814,25.122-51.789,32.33-55.495c7.208-3.707,18.636-1.235,15.547,21.313
			c-3.09,22.548-2.472,35.006-1.648,38.712c0.825,3.707,8.855-1.442,11.739-4.324c2.882-2.882,2.161,0.206,2.161,0.206
			s-0.822,4.736-5.662,9.472c-4.84,4.737-15.033,11.326-22.549,4.222c-7.514-7.104-4.118-25.327-4.118-30.372
			c0-5.046,5.353-25.946-8.442-12.974c-13.796,12.974-16.988,39.151-17.143,41.675c-0.359,5.857-0.824,6.669-2.523,6.669
			s-6.896,0-10.037,0c-3.139,0-2.523-3.734-2.523-3.734c0-4.839-0.049-47.658-0.049-54.041s2.423-6.866,5.717-8.823
			c3.294-1.956,12.046-6.624,12.148-0.035s0,37.798,0,37.798"/>
		<path d="M417.695,225.356c0,0-7.747-6.589-27.939-10.093c-20.19-3.501-25.862,41.089-16.841,55.263
			c9.021,14.176,28.706,21.077,47.105,1.949c3.447-3.094,0.701-8.583,0.701-8.583s-3.67,3.106-16.743,7.125
			c-13.072,4.019-19.368-9.615-17.575-23.424c1.719-13.252,4.882-27.879,15.6-25.737c10.717,2.143,15.141,6.001,15.141,6.001"/>
		<path d="M178.098,205.213c0,0,0.461,39.767-1.539,56.628c-1.998,16.861-7.01,26.466-20.217,22.188s-6.474-5.997-2.194-10.087
			c4.279-4.089,5.658-15.664,5.857-27.988c0.199-12.324,1.709-47.969,1.619-50.815c-0.09-2.846,1.554-4.893,14.074,4.183
			C177.818,200.629,178.07,202.148,178.098,205.213z"/>
		<path d="M169.513,227.828c0,0,7.747-6.59,27.938-10.094c20.192-3.501,25.862,41.089,16.841,55.263
			c-9.021,14.176-28.706,21.077-47.104,1.95c-3.447-3.095-0.7-8.583-0.7-8.583s3.668,3.105,16.741,7.124
			c13.073,4.02,19.369-9.615,17.576-23.424c-1.72-13.252-4.882-27.878-15.601-25.738c-10.716,2.144-15.141,6.001-15.141,6.001"/>
		<path d="M132.538,175.618c0,0,1.653-5.79-4.254-9.215c-5.908-3.427-15.595-8.979-23.156,4.607
			c-7.562,13.586,7.088,39.814,12.051,47.258c4.962,7.443,16.066,25.52,24.811,13.705c3.781-5.198,3.898-6.498,3.84-7.088
			c-0.059-0.591-1.418-0.973-2.067-0.339c-0.648,0.634-2.541,2.76-4.962,1.52c-2.423-1.241-14.98-13.752-20.439-30.127
			c-3.959-11.874-5.79-22.803-1.892-24.457c1.655-0.827,0.827,1.463,0.827,1.463s-1.477,8.284,2.541,12.773
			c4.017,4.49,9.098,9.275,9.511,4.845C129.761,186.133,131.119,179.577,132.538,175.618z"/>
		<path d="M106.034,186.921c0,0-16.225,12.916-19.376,30.875c-3.15,17.958,16.54,30.718,48.046-1.89
			c2.048-2.206,2.994-2.599,2.283-4.096c-0.708-1.497-1.417-2.915-2.834-1.733c-1.418,1.182-14.475,14.949-24.438,16.269
			c-9.688,1.284-23.386-9.583,0.1-35.802"/>
		<path d="M518.305,268.44c17.728-20.263,27.776-46.71,27.776-72.723c0-94.165-113.119-170.5-252.661-170.5
			c-139.541,0-252.661,76.335-252.661,170.5s113.12,170.5,252.661,170.5c59.161,0,114.128-12.709,156.628-36.704
			c22.521-12.716,29.625-32.484,29.008-47.619c-0.618-15.136-4.222-22.136-11.737-34.595c-7.099-11.766-13.179-16.679-15.237-16.267
			c-2.06,0.411-2.059,1.441,0.617,3.912c2.677,2.471,48.277,59.368-21.057,94.208c-77.11,38.746-172.359,30.545-220.383,16.68
			c-43.86-12.664-118.195-44.413-144.554-94.175C40.347,201.894,43.979,93.763,185.726,47.868
			c136.729-44.271,287.354,14.53,331.939,85.537c42.832,68.216,7.104,122.543-5.766,137.266
			C509.678,273.213,512.929,274.584,518.305,268.44z"/>
	</g>
	<g>
		<path d="M494.462,166.539c-5.235,0.015-31.981-0.282-39.479,3.82c-7.5,4.104-9.48,8.349-5.237,17.123
			c4.245,8.773,10.331,13.727,9.059,18.255c-1.274,4.527-5.165,6.226-9.482,4.385c-3.864-1.646-7.641-7.427-8.205-12.947
			c-0.566-5.518-1.699,0.779-1.699,1.556c0,0.779-0.07,15.354,9.481,20.378c9.552,5.022,23.489-0.496,25.257-9.552
			c1.771-9.056-1.91-12.535-4.738-15.784c-2.833-3.25-18.365-16.871-10.438-19.419c7.923-2.546,21.687-3.467,35.483-2.052
			c4.74,0.425,6.297-0.598,6.65-1.73C501.466,169.44,501.894,166.518,494.462,166.539z"/>
		<path d="M490.208,157.331c0,0-4.724,17.399-3.396,35.021c0.858,11.404,7.004,15.919,7.004,15.919s4.987-6.686,7.004-10.4
			c2.017-3.713,2.97-4.367,4.033-4.095c1.061,0.274,2.439,1.065,1.896,2.315c-0.541,1.25-9.315,22.807-19.009,22.028
			c-7.146-6.227-8.548-22.637-8.492-28.019c0.054-4.774,0.028-26.723,3.541-31.625C486.184,153.733,490.663,155.51,490.208,157.331z
			"/>
		<circle cx="503.472" cy="217.078" r="2.866"/>
	</g>
</g>
</svg>
